ffmpeg started on 2025-06-06 at 20:54:39
Report written to "D:\Convert\FFMetrics\reports\ssim_report-6.txt"
Log level: 32
Command line:
ffmpeg -hide_banner -nostdin -i "G:\\\xc0\xed\xe8\xec\xe5\\\xce\xed\xe3\xee\xe8\xed\xe3\xe8\\!_36_\xce\xf1\xe5\xed\xfc_2024\\DreamCast\\\xd2\xe5\xf2\xf0\xe0\xe4\xfc \xe4\xf0\xf3\xe6\xe1\xfb \xcd\xe0\xf6\xf3\xec\xfd [\xd2\xc2-7]\\[DC] Natsume Yuujinchou Shichi - 12_Telegram_HEVC.mkv" -i "G:\\\xc0\xed\xe8\xec\xe5\\\xce\xed\xe3\xee\xe8\xed\xe3\xe8\\!_36_\xce\xf1\xe5\xed\xfc_2024\\DreamCast\\\xd2\xe5\xf2\xf0\xe0\xe4\xfc \xe4\xf0\xf3\xe6\xe1\xfb \xcd\xe0\xf6\xf3\xec\xfd [\xd2\xc2-7]\\[DC] Natsume Yuujinchou Shichi - 12_Telegram.mp4" -lavfi "[0:v]settb=AVTB,setpts=PTS-STARTPTS,format=pix_fmts=yuv420p10,fps=24000/1001,scale=1920:1080:flags=bicubic[main];[1:v]settb=AVTB,setpts=PTS-STARTPTS,format=pix_fmts=yuv420p,fps=24000/1001,scale=1920:1080:flags=bicubic[ref];[main][ref]ssim=eof_action=endall:stats_file='D\\:/Convert/FFMetrics/logs/ssim_logfile-6.txt'" -f null -
Input #0, matroska,webm, from 'G:\Аниме\Онгоинги\!_36_Осень_2024\DreamCast\Тетрадь дружбы Нацумэ [ТВ-7]\[DC] Natsume Yuujinchou Shichi - 12_Telegram_HEVC.mkv':
  Metadata:
    COMPATIBLE_BRANDS: isomiso2avc1mp41
    MAJOR_BRAND     : isom
    MINOR_VERSION   : 512
    ENCODER         : Lavf61.7.100
  Duration: 00:23:41.70, start: -0.021000, bitrate: 822 kb/s
  Stream #0:0: Video: hevc (Main 10), yuv420p10le(tv, bt709, progressive), 1920x1080 [SAR 1:1 DAR 16:9], 23.98 fps, 23.98 tbr, 1k tbn (default)
      Metadata:
        HANDLER_NAME    : VideoHandler
        VENDOR_ID       : [0][0][0][0]
        ENCODER         : Lavc61.19.100 libx265
        BPS             : 624326
        DURATION        : 00:23:41.586708333
        NUMBER_OF_FRAMES: 34084
        NUMBER_OF_BYTES : 110941813
        _STATISTICS_WRITING_APP: mkvpropedit v66.0.0 ('Josie') 64-bit
        _STATISTICS_WRITING_DATE_UTC: 2025-06-04 16:16:46
        _STATISTICS_TAGS: BPS DURATION NUMBER_OF_FRAMES NUMBER_OF_BYTES
  Stream #0:1: Audio: aac (LC), 48000 Hz, stereo, fltp (default)
      Metadata:
        HANDLER_NAME    : SoundHandler
        VENDOR_ID       : [0][0][0][0]
        ENCODER         : Lavc61.19.100 aac
        BPS             : 193803
        DURATION        : 00:23:41.696000000
        NUMBER_OF_FRAMES: 66643
        NUMBER_OF_BYTES : 34441219
        _STATISTICS_WRITING_APP: mkvpropedit v66.0.0 ('Josie') 64-bit
        _STATISTICS_WRITING_DATE_UTC: 2025-06-04 16:16:46
        _STATISTICS_TAGS: BPS DURATION NUMBER_OF_FRAMES NUMBER_OF_BYTES
Input #1, mov,mp4,m4a,3gp,3g2,mj2, from 'G:\Аниме\Онгоинги\!_36_Осень_2024\DreamCast\Тетрадь дружбы Нацумэ [ТВ-7]\[DC] Natsume Yuujinchou Shichi - 12_Telegram.mp4':
  Metadata:
    major_brand     : isom
    minor_version   : 512
    compatible_brands: isomiso2avc1mp41
    encoder         : Lavf61.1.100
  Duration: 00:23:41.66, start: 0.000000, bitrate: 3375 kb/s
  Stream #1:0[0x1](und): Video: h264 (High) (avc1 / 0x31637661), yuv420p(tv, bt709, progressive), 1920x1080 [SAR 1:1 DAR 16:9], 3227 kb/s, 23.98 fps, 23.98 tbr, 24k tbn (default)
      Metadata:
        handler_name    : VideoHandler
        vendor_id       : [0][0][0][0]
        encoder         : Lavc61.3.100 h264_qsv
  Stream #1:1[0x2](und): Audio: aac (HE-AACv2) (mp4a / 0x6134706D), 48000 Hz, stereo, fltp, 144 kb/s (default)
      Metadata:
        handler_name    : SoundHandler
        vendor_id       : [0][0][0][0]
Stream mapping:
  Stream #0:0 (hevc) -> settb:default
  Stream #1:0 (h264) -> settb:default
  ssim:default -> Stream #0:0 (wrapped_avframe)
  Stream #0:1 -> #0:1 (aac (native) -> pcm_s16le (native))
Output #0, null, to 'pipe:':
  Metadata:
    COMPATIBLE_BRANDS: isomiso2avc1mp41
    MAJOR_BRAND     : isom
    MINOR_VERSION   : 512
    encoder         : Lavf61.7.100
  Stream #0:0: Video: wrapped_avframe, yuv420p10le(tv, bt709, progressive), 1920x1080 [SAR 1:1 DAR 16:9], q=2-31, 200 kb/s, 23.98 fps, 23.98 tbn
      Metadata:
        encoder         : Lavc61.19.100 wrapped_avframe
  Stream #0:1: Audio: pcm_s16le, 48000 Hz, stereo, s16, 1536 kb/s (default)
      Metadata:
        HANDLER_NAME    : SoundHandler
        VENDOR_ID       : [0][0][0][0]
        _STATISTICS_TAGS: BPS DURATION NUMBER_OF_FRAMES NUMBER_OF_BYTES
        BPS             : 193803
        DURATION        : 00:23:41.696000000
        NUMBER_OF_FRAMES: 66643
        NUMBER_OF_BYTES : 34441219
        _STATISTICS_WRITING_APP: mkvpropedit v66.0.0 ('Josie') 64-bit
        _STATISTICS_WRITING_DATE_UTC: 2025-06-04 16:16:46
        encoder         : Lavc61.19.100 pcm_s16le
frame=  173 fps=0.0 q=-0.0 size=N/A time=00:00:07.21 bitrate=N/A speed=14.2x    frame=  344 fps=334 q=-0.0 size=N/A time=00:00:14.34 bitrate=N/A speed=13.9x    frame=  548 fps=356 q=-0.0 size=N/A time=00:00:22.85 bitrate=N/A speed=14.8x    frame=  764 fps=371 q=-0.0 size=N/A time=00:00:31.86 bitrate=N/A speed=15.5x    frame=  957 fps=371 q=-0.0 size=N/A time=00:00:39.91 bitrate=N/A speed=15.5x    frame= 1176 fps=380 q=-0.0 size=N/A time=00:00:49.04 bitrate=N/A speed=15.9x    frame= 1372 fps=381 q=-0.0 size=N/A time=00:00:57.22 bitrate=N/A speed=15.9x    frame= 1598 fps=387 q=-0.0 size=N/A time=00:01:06.64 bitrate=N/A speed=16.2x    frame= 1797 fps=387 q=-0.0 size=N/A time=00:01:14.94 bitrate=N/A speed=16.1x    frame= 1971 fps=382 q=-0.0 size=N/A time=00:01:22.20 bitrate=N/A speed=  16x    frame= 2185 fps=385 q=-0.0 size=N/A time=00:01:31.13 bitrate=N/A speed=16.1x    frame= 2411 fps=390 q=-0.0 size=N/A time=00:01:40.55 bitrate=N/A speed=16.3x    frame= 2665 fps=397 q=-0.0 size=N/A time=00:01:51.15 bitrate=N/A speed=16.6x    frame= 2904 fps=402 q=-0.0 size=N/A time=00:02:01.12 bitrate=N/A speed=16.8x    frame= 3157 fps=408 q=-0.0 size=N/A time=00:02:11.67 bitrate=N/A speed=  17x    frame= 3397 fps=412 q=-0.0 size=N/A time=00:02:21.68 bitrate=N/A speed=17.2x    frame= 3658 fps=417 q=-0.0 size=N/A time=00:02:32.56 bitrate=N/A speed=17.4x    frame= 3921 fps=423 q=-0.0 size=N/A time=00:02:43.53 bitrate=N/A speed=17.6x    frame= 4188 fps=428 q=-0.0 size=N/A time=00:02:54.67 bitrate=N/A speed=17.8x    frame= 4462 fps=433 q=-0.0 size=N/A time=00:03:06.10 bitrate=N/A speed=18.1x    frame= 4748 fps=439 q=-0.0 size=N/A time=00:03:18.03 bitrate=N/A speed=18.3x    frame= 5028 fps=444 q=-0.0 size=N/A time=00:03:29.70 bitrate=N/A speed=18.5x    frame= 5293 fps=446 q=-0.0 size=N/A time=00:03:40.76 bitrate=N/A speed=18.6x    frame= 5574 fps=450 q=-0.0 size=N/A time=00:03:52.48 bitrate=N/A speed=18.8x    frame= 5861 fps=455 q=-0.0 size=N/A time=00:04:04.45 bitrate=N/A speed=  19x    frame= 6153 fps=459 q=-0.0 size=N/A time=00:04:16.63 bitrate=N/A speed=19.1x    frame= 6435 fps=462 q=-0.0 size=N/A time=00:04:28.39 bitrate=N/A speed=19.3x    frame= 6706 fps=465 q=-0.0 size=N/A time=00:04:39.69 bitrate=N/A speed=19.4x    frame= 6981 fps=467 q=-0.0 size=N/A time=00:04:51.16 bitrate=N/A speed=19.5x    frame= 7230 fps=467 q=-0.0 size=N/A time=00:05:01.55 bitrate=N/A speed=19.5x    frame= 7462 fps=467 q=-0.0 size=N/A time=00:05:11.22 bitrate=N/A speed=19.5x    frame= 7745 fps=469 q=-0.0 size=N/A time=00:05:23.03 bitrate=N/A speed=19.6x    frame= 8030 fps=472 q=-0.0 size=N/A time=00:05:34.91 bitrate=N/A speed=19.7x    frame= 8314 fps=474 q=-0.0 size=N/A time=00:05:46.76 bitrate=N/A speed=19.8x    frame= 8572 fps=475 q=-0.0 size=N/A time=00:05:57.52 bitrate=N/A speed=19.8x    frame= 8855 fps=477 q=-0.0 size=N/A time=00:06:09.32 bitrate=N/A speed=19.9x    frame= 9145 fps=479 q=-0.0 size=N/A time=00:06:21.42 bitrate=N/A speed=  20x    frame= 9411 fps=481 q=-0.0 size=N/A time=00:06:32.51 bitrate=N/A speed=  20x    frame= 9669 fps=481 q=-0.0 size=N/A time=00:06:43.27 bitrate=N/A speed=20.1x    frame= 9935 fps=482 q=-0.0 size=N/A time=00:06:54.37 bitrate=N/A speed=20.1x    frame=10188 fps=482 q=-0.0 size=N/A time=00:07:04.92 bitrate=N/A speed=20.1x    frame=10450 fps=483 q=-0.0 size=N/A time=00:07:15.85 bitrate=N/A speed=20.1x    frame=10716 fps=483 q=-0.0 size=N/A time=00:07:26.94 bitrate=N/A speed=20.2x    frame=10927 fps=482 q=-0.0 size=N/A time=00:07:35.74 bitrate=N/A speed=20.1x    frame=11178 fps=482 q=-0.0 size=N/A time=00:07:46.21 bitrate=N/A speed=20.1x    frame=11454 fps=483 q=-0.0 size=N/A time=00:07:57.72 bitrate=N/A speed=20.1x    frame=11720 fps=484 q=-0.0 size=N/A time=00:08:08.82 bitrate=N/A speed=20.2x    frame=12007 fps=485 q=-0.0 size=N/A time=00:08:20.79 bitrate=N/A speed=20.2x    frame=12281 fps=486 q=-0.0 size=N/A time=00:08:32.22 bitrate=N/A speed=20.3x    frame=12553 fps=487 q=-0.0 size=N/A time=00:08:43.56 bitrate=N/A speed=20.3x    frame=12824 fps=488 q=-0.0 size=N/A time=00:08:54.86 bitrate=N/A speed=20.3x    frame=13103 fps=489 q=-0.0 size=N/A time=00:09:06.50 bitrate=N/A speed=20.4x    frame=13385 fps=490 q=-0.0 size=N/A time=00:09:18.26 bitrate=N/A speed=20.4x    frame=13684 fps=491 q=-0.0 size=N/A time=00:09:30.73 bitrate=N/A speed=20.5x    frame=13939 fps=492 q=-0.0 size=N/A time=00:09:41.37 bitrate=N/A speed=20.5x    frame=14239 fps=493 q=-0.0 size=N/A time=00:09:53.88 bitrate=N/A speed=20.6x    frame=14493 fps=493 q=-0.0 size=N/A time=00:10:04.47 bitrate=N/A speed=20.6x    frame=14744 fps=493 q=-0.0 size=N/A time=00:10:14.94 bitrate=N/A speed=20.6x    frame=15021 fps=494 q=-0.0 size=N/A time=00:10:26.50 bitrate=N/A speed=20.6x    frame=15309 fps=495 q=-0.0 size=N/A time=00:10:38.51 bitrate=N/A speed=20.6x    frame=15608 fps=496 q=-0.0 size=N/A time=00:10:50.98 bitrate=N/A speed=20.7x    frame=15901 fps=497 q=-0.0 size=N/A time=00:11:03.20 bitrate=N/A speed=20.7x    frame=16186 fps=498 q=-0.0 size=N/A time=00:11:15.09 bitrate=N/A speed=20.8x    frame=16428 fps=498 q=-0.0 size=N/A time=00:11:25.18 bitrate=N/A speed=20.8x    frame=16724 fps=499 q=-0.0 size=N/A time=00:11:37.53 bitrate=N/A speed=20.8x    frame=17013 fps=500 q=-0.0 size=N/A time=00:11:49.58 bitrate=N/A speed=20.9x    frame=17300 fps=501 q=-0.0 size=N/A time=00:12:01.55 bitrate=N/A speed=20.9x    frame=17583 fps=501 q=-0.0 size=N/A time=00:12:13.35 bitrate=N/A speed=20.9x    frame=17866 fps=502 q=-0.0 size=N/A time=00:12:25.16 bitrate=N/A speed=20.9x    frame=18113 fps=502 q=-0.0 size=N/A time=00:12:35.46 bitrate=N/A speed=20.9x    frame=18395 fps=502 q=-0.0 size=N/A time=00:12:47.22 bitrate=N/A speed=  21x    frame=18645 fps=502 q=-0.0 size=N/A time=00:12:57.65 bitrate=N/A speed=20.9x    frame=18896 fps=502 q=-0.0 size=N/A time=00:13:08.12 bitrate=N/A speed=20.9x    frame=19125 fps=501 q=-0.0 size=N/A time=00:13:17.67 bitrate=N/A speed=20.9x    frame=19372 fps=501 q=-0.0 size=N/A time=00:13:27.97 bitrate=N/A speed=20.9x    frame=19615 fps=501 q=-0.0 size=N/A time=00:13:38.10 bitrate=N/A speed=20.9x    frame=19861 fps=500 q=-0.0 size=N/A time=00:13:48.36 bitrate=N/A speed=20.9x    frame=20097 fps=500 q=-0.0 size=N/A time=00:13:58.21 bitrate=N/A speed=20.8x    frame=20331 fps=499 q=-0.0 size=N/A time=00:14:07.97 bitrate=N/A speed=20.8x    frame=20572 fps=499 q=-0.0 size=N/A time=00:14:18.02 bitrate=N/A speed=20.8x    frame=20794 fps=498 q=-0.0 size=N/A time=00:14:27.28 bitrate=N/A speed=20.8x    frame=21011 fps=497 q=-0.0 size=N/A time=00:14:36.33 bitrate=N/A speed=20.7x    frame=21292 fps=498 q=-0.0 size=N/A time=00:14:48.05 bitrate=N/A speed=20.8x    frame=21567 fps=498 q=-0.0 size=N/A time=00:14:59.52 bitrate=N/A speed=20.8x    frame=21863 fps=499 q=-0.0 size=N/A time=00:15:11.86 bitrate=N/A speed=20.8x    frame=22118 fps=499 q=-0.0 size=N/A time=00:15:22.50 bitrate=N/A speed=20.8x    frame=22378 fps=499 q=-0.0 size=N/A time=00:15:33.34 bitrate=N/A speed=20.8x    frame=22660 fps=499 q=-0.0 size=N/A time=00:15:45.11 bitrate=N/A speed=20.8x    frame=22932 fps=500 q=-0.0 size=N/A time=00:15:56.45 bitrate=N/A speed=20.8x    frame=23218 fps=500 q=-0.0 size=N/A time=00:16:08.38 bitrate=N/A speed=20.9x    frame=23481 fps=500 q=-0.0 size=N/A time=00:16:19.35 bitrate=N/A speed=20.9x    frame=23742 fps=500 q=-0.0 size=N/A time=00:16:30.23 bitrate=N/A speed=20.9x    frame=24016 fps=501 q=-0.0 size=N/A time=00:16:41.66 bitrate=N/A speed=20.9x    frame=24283 fps=501 q=-0.0 size=N/A time=00:16:52.80 bitrate=N/A speed=20.9x    frame=24564 fps=502 q=-0.0 size=N/A time=00:17:04.52 bitrate=N/A speed=20.9x    frame=24832 fps=502 q=-0.0 size=N/A time=00:17:15.70 bitrate=N/A speed=20.9x    frame=25118 fps=502 q=-0.0 size=N/A time=00:17:27.62 bitrate=N/A speed=20.9x    frame=25387 fps=502 q=-0.0 size=N/A time=00:17:38.84 bitrate=N/A speed=  21x    frame=25674 fps=503 q=-0.0 size=N/A time=00:17:50.81 bitrate=N/A speed=  21x    frame=25969 fps=504 q=-0.0 size=N/A time=00:18:03.12 bitrate=N/A speed=  21x    frame=26265 fps=504 q=-0.0 size=N/A time=00:18:15.46 bitrate=N/A speed=  21x    frame=26549 fps=505 q=-0.0 size=N/A time=00:18:27.31 bitrate=N/A speed=21.1x    frame=26828 fps=505 q=-0.0 size=N/A time=00:18:38.95 bitrate=N/A speed=21.1x    frame=27077 fps=505 q=-0.0 size=N/A time=00:18:49.33 bitrate=N/A speed=21.1x    frame=27342 fps=505 q=-0.0 size=N/A time=00:19:00.38 bitrate=N/A speed=21.1x    frame=27630 fps=506 q=-0.0 size=N/A time=00:19:12.40 bitrate=N/A speed=21.1x    frame=27899 fps=506 q=-0.0 size=N/A time=00:19:23.62 bitrate=N/A speed=21.1x    frame=28176 fps=506 q=-0.0 size=N/A time=00:19:35.17 bitrate=N/A speed=21.1x    frame=28467 fps=506 q=-0.0 size=N/A time=00:19:47.31 bitrate=N/A speed=21.1x    frame=28741 fps=507 q=-0.0 size=N/A time=00:19:58.73 bitrate=N/A speed=21.1x    frame=29020 fps=507 q=-0.0 size=N/A time=00:20:10.37 bitrate=N/A speed=21.1x    frame=29299 fps=507 q=-0.0 size=N/A time=00:20:22.01 bitrate=N/A speed=21.2x    frame=29599 fps=508 q=-0.0 size=N/A time=00:20:34.52 bitrate=N/A speed=21.2x    frame=29888 fps=508 q=-0.0 size=N/A time=00:20:46.57 bitrate=N/A speed=21.2x    frame=30168 fps=509 q=-0.0 size=N/A time=00:20:58.25 bitrate=N/A speed=21.2x    frame=30393 fps=508 q=-0.0 size=N/A time=00:21:07.64 bitrate=N/A speed=21.2x    frame=30612 fps=507 q=-0.0 size=N/A time=00:21:16.77 bitrate=N/A speed=21.2x    frame=30871 fps=507 q=-0.0 size=N/A time=00:21:27.57 bitrate=N/A speed=21.2x    frame=31159 fps=508 q=-0.0 size=N/A time=00:21:39.58 bitrate=N/A speed=21.2x    frame=31419 fps=508 q=-0.0 size=N/A time=00:21:50.43 bitrate=N/A speed=21.2x    frame=31685 fps=508 q=-0.0 size=N/A time=00:22:01.52 bitrate=N/A speed=21.2x    frame=31955 fps=508 q=-0.0 size=N/A time=00:22:12.78 bitrate=N/A speed=21.2x    frame=32191 fps=508 q=-0.0 size=N/A time=00:22:22.63 bitrate=N/A speed=21.2x    frame=32428 fps=507 q=-0.0 size=N/A time=00:22:32.51 bitrate=N/A speed=21.2x    frame=32670 fps=507 q=-0.0 size=N/A time=00:22:42.61 bitrate=N/A speed=21.1x    frame=32919 fps=507 q=-0.0 size=N/A time=00:22:52.99 bitrate=N/A speed=21.1x    frame=33171 fps=507 q=-0.0 size=N/A time=00:23:03.50 bitrate=N/A speed=21.1x    frame=33433 fps=507 q=-0.0 size=N/A time=00:23:14.43 bitrate=N/A speed=21.1x    frame=33678 fps=506 q=-0.0 size=N/A time=00:23:24.65 bitrate=N/A speed=21.1x    frame=33943 fps=506 q=-0.0 size=N/A time=00:23:35.70 bitrate=N/A speed=21.1x    [Parsed_ssim_10 @ 0000023c850a37c0] SSIM Y:0.995274 (23.255270) U:0.994284 (22.429095) V:0.994806 (22.844828) All:0.995031 (23.037418)
[out#0/null @ 0000023c8509ff80] video:14645KiB audio:266572KiB subtitle:0KiB other streams:0KiB global headers:0KiB muxing overhead: unknown
frame=34084 fps=506 q=-0.0 Lsize=N/A time=00:23:41.58 bitrate=N/A speed=21.1x    
